<?xml version="1.0" standalone="no"?>
<!DOCTYPE svg PUBLIC "-//W3C//DTD SVG 20010904//EN"
 "http://www.w3.org/TR/2001/REC-SVG-20010904/DTD/svg10.dtd">
<svg version="1.0" xmlns="http://www.w3.org/2000/svg"
 width="2000.000000pt" height="2000.000000pt" viewBox="0 0 2000.000000 2000.000000"
 preserveAspectRatio="xMidYMid meet">

<g transform="translate(0.000000,2000.000000) scale(0.100000,-0.100000)"
fill="#000000" stroke="none">
<path d="M15462 14821 c-57 -42 -137 -151 -351 -479 -228 -349 -248 -383 -393
-647 -185 -337 -211 -389 -308 -605 -51 -113 -126 -277 -168 -365 -96 -204
-222 -512 -319 -785 -29 -79 -163 -202 -408 -372 -98 -69 -237 -139 -329 -167
-80 -25 -194 -28 -234 -7 -77 40 -136 154 -153 296 -24 189 30 400 175 695
136 275 294 496 424 595 133 101 326 179 444 180 28 0 44 -7 62 -27 40 -43 82
-130 116 -243 44 -142 66 -163 91 -82 10 33 7 52 -21 147 -19 67 -48 138 -73
182 -23 39 -49 84 -58 100 -17 32 -113 100 -169 119 -48 18 -161 17 -238 -1
-35 -8 -127 -42 -204 -75 -131 -56 -147 -60 -256 -70 -64 -6 -184 -20 -265
-31 -82 -11 -162 -17 -179 -14 l-30 7 7 72 c8 86 -8 246 -35 354 -28 108 -98
244 -172 331 -78 93 -230 217 -281 232 -68 18 -161 -21 -322 -136 -148 -106
-227 -314 -177 -467 12 -35 28 -86 36 -113 8 -28 38 -92 66 -142 60 -108 124
-172 226 -225 102 -54 169 -69 337 -75 81 -3 150 -10 153 -14 6 -10 -117 -292
-177 -409 -37 -70 -94 -142 -211 -267 -71 -76 -258 -208 -373 -263 -158 -76
-186 -82 -390 -87 -164 -4 -191 -2 -308 21 -146 29 -172 41 -228 99 -85 86
-129 216 -129 374 0 131 22 213 111 421 97 226 132 293 242 464 108 167 156
231 251 337 83 92 87 127 15 144 -37 9 -142 -9 -232 -41 -81 -28 -175 -95
-322 -230 -99 -92 -303 -211 -386 -226 l-36 -6 -6 102 c-16 280 -115 506 -296
682 -129 123 -250 155 -395 103 -76 -28 -178 -99 -235 -163 -107 -122 -139
-295 -77 -426 9 -18 22 -54 29 -79 17 -54 123 -215 167 -252 49 -42 147 -92
245 -127 82 -30 100 -32 200 -31 61 0 137 5 170 10 33 5 61 8 63 6 5 -4 -78
-234 -123 -341 -125 -293 -244 -453 -427 -577 -229 -153 -493 -240 -733 -240
-285 0 -441 104 -475 319 -20 126 19 353 107 619 140 427 206 564 398 829 40
55 40 56 22 80 -24 33 -126 24 -238 -20 -81 -33 -104 -47 -167 -108 -122 -117
-283 -310 -423 -506 -72 -102 -153 -212 -180 -246 -49 -61 -251 -370 -328
-501 -24 -40 -47 -73 -51 -73 -16 0 -31 33 -129 278 -112 280 -215 476 -288
543 -24 21 -48 39 -54 39 -6 0 -26 -15 -44 -33 -24 -24 -35 -46 -40 -78 -7
-46 -1 -65 105 -344 41 -108 42 -112 35 -195 -18 -222 -175 -663 -311 -870
-128 -197 -401 -398 -583 -430 -114 -21 -269 -9 -381 29 -335 113 -591 368
-714 709 -14 41 -38 131 -53 200 -26 119 -27 143 -28 387 0 273 11 380 57 580
128 553 470 875 930 875 73 0 147 -6 191 -16 63 -14 78 -22 118 -64 69 -70 99
-130 121 -233 21 -104 43 -137 93 -137 47 0 68 29 73 101 12 163 -55 328 -188
458 -108 107 -224 143 -460 143 -274 1 -526 -82 -787 -258 -132 -88 -202 -159
-285 -284 -141 -213 -224 -418 -312 -770 -103 -408 -136 -797 -91 -1055 44
-255 160 -496 320 -664 91 -96 155 -144 301 -228 108 -62 133 -71 247 -97 120
-27 136 -29 272 -23 188 9 352 31 459 62 272 79 589 319 767 582 61 89 203
358 300 565 85 181 68 185 134 -33 l38 -126 -141 -250 c-77 -138 -166 -292
-197 -344 -347 -572 -614 -1098 -719 -1421 -125 -381 -151 -784 -66 -1010 25
-67 96 -150 152 -179 64 -33 184 -59 269 -59 189 0 417 85 569 213 131 110
295 321 397 513 68 128 166 494 192 719 31 266 35 667 10 905 -22 204 -127
762 -194 1025 -37 147 -36 158 36 262 33 48 106 156 161 238 150 223 268 385
280 385 11 0 10 -32 -13 -245 -22 -209 0 -375 68 -510 47 -94 91 -153 170
-225 76 -69 154 -111 268 -142 71 -19 106 -22 300 -22 l220 -1 95 33 c305 107
538 263 685 457 162 215 375 656 375 776 0 35 16 70 39 83 9 6 57 24 106 42
50 17 104 37 122 45 18 7 35 11 38 7 3 -3 -24 -69 -60 -147 -42 -91 -76 -182
-94 -254 -89 -349 -87 -449 16 -684 68 -156 129 -217 302 -303 92 -46 166 -64
337 -86 120 -15 139 -15 238 0 189 28 438 126 616 244 304 201 603 608 666
907 l9 40 90 6 c50 3 123 10 162 14 99 11 103 -2 26 -97 -210 -260 -297 -456
-354 -803 -26 -158 -31 -392 -10 -475 21 -85 69 -166 147 -249 120 -127 219
-171 384 -171 98 0 190 19 258 54 75 38 226 140 370 250 215 163 212 162 212
129 0 -10 -23 -121 -50 -248 -52 -237 -97 -525 -126 -795 -20 -191 -20 -551 0
-773 12 -143 17 -164 47 -225 38 -79 132 -178 200 -210 135 -65 291 -42 431
65 52 40 203 207 260 288 54 76 168 298 168 327 0 14 -7 31 -15 38 -22 18 -96
15 -134 -4 -38 -20 -157 -186 -251 -351 -106 -184 -201 -268 -305 -268 -54 0
-94 16 -143 58 -46 39 -56 102 -49 325 9 282 76 761 183 1300 51 255 92 421
158 629 122 386 346 977 471 1245 92 199 453 870 685 1276 136 238 213 380
235 432 l15 38 -40 20 c-57 29 -109 26 -158 -9z m-5691 -766 c60 -21 121 -72
185 -152 75 -94 119 -183 148 -299 27 -106 60 -323 51 -333 -11 -10 -212 -18
-315 -11 -205 14 -350 109 -411 268 -40 108 -36 283 10 387 51 115 211 182
332 140z m2396 -117 c54 -25 150 -128 203 -217 76 -128 110 -277 110 -482 l0
-109 -114 0 c-236 0 -347 32 -436 126 -126 133 -198 422 -136 542 24 46 87
107 137 132 82 42 158 45 236 8z m-4698 -2560 c64 -449 78 -652 63 -907 -17
-268 -53 -493 -122 -771 -76 -299 -149 -449 -286 -581 -191 -184 -319 -249
-489 -249 -114 0 -175 20 -234 78 -54 52 -79 110 -105 235 -22 104 -20 166 8
347 61 383 102 495 391 1070 264 522 453 857 623 1100 63 90 74 98 88 63 6
-15 35 -188 63 -385z"/>
<path d="M10140 11732 c-254 -260 -342 -406 -373 -613 -10 -73 -10 -79 14
-125 l24 -49 255 -127 c266 -132 360 -195 360 -241 0 -12 -16 -42 -36 -67 -32
-40 -34 -45 -17 -48 31 -5 116 33 247 109 128 74 171 111 183 156 8 35 -21
183 -47 232 -20 41 -115 168 -164 219 -17 19 -65 61 -106 95 -127 103 -211
181 -226 209 -19 37 -18 82 6 180 23 95 27 188 8 188 -7 0 -64 -53 -128 -118z
m22 -157 c-2 -35 -1 -80 2 -99 8 -43 75 -118 194 -217 129 -108 167 -146 238
-236 76 -96 91 -129 100 -215 6 -64 6 -64 -27 -92 -18 -16 -57 -40 -86 -54
l-52 -26 -50 47 c-76 71 -170 128 -367 220 -203 96 -254 134 -254 188 0 47 36
173 66 233 37 74 216 316 234 316 3 0 4 -29 2 -65z"/>
<path d="M10350 10299 c-473 -36 -861 -102 -1042 -178 -163 -69 -300 -168
-337 -244 -35 -73 -30 -129 60 -682 46 -279 71 -372 125 -460 63 -103 71 -119
78 -146 5 -25 2 -27 -122 -71 -70 -25 -153 -53 -185 -62 -121 -35 -373 -154
-443 -209 -39 -32 -84 -150 -84 -222 0 -100 68 -204 193 -296 98 -73 193 -119
339 -163 171 -52 251 -63 903 -126 208 -20 661 -31 800 -20 457 38 852 83
1007 115 151 31 313 87 523 180 165 73 227 115 343 231 l92 93 0 73 c0 81 -27
154 -72 196 -35 32 -190 97 -290 122 -134 33 -158 40 -158 50 0 6 33 31 73 56
173 111 359 279 464 419 62 83 132 221 168 335 39 120 41 244 5 315 -82 160
-417 212 -703 109 -40 -14 -79 -28 -88 -30 -13 -5 -18 10 -29 83 -21 143 -53
199 -162 279 -87 65 -388 177 -558 208 -111 21 -564 56 -694 55 -55 -1 -148
-5 -206 -10z m580 -124 c257 -22 370 -46 570 -117 102 -36 225 -100 263 -136
43 -41 70 -106 62 -148 -7 -38 -77 -124 -101 -124 -8 0 -30 23 -50 50 -55 76
-168 146 -306 188 -185 58 -696 74 -1043 34 -299 -34 -395 -50 -563 -92 -216
-55 -339 -126 -381 -223 l-16 -38 -65 42 c-36 23 -88 52 -117 65 -124 55 -112
151 32 259 65 49 95 61 225 93 47 12 135 37 196 56 285 89 853 129 1294 91z
m1636 -524 c69 -25 118 -67 134 -116 14 -42 -1 -167 -30 -251 -101 -292 -519
-662 -859 -760 -119 -34 -129 -30 -96 35 21 43 31 52 67 62 91 24 156 65 303
190 159 135 268 264 337 396 64 125 51 182 -52 218 -61 22 -112 22 -262 2
-167 -22 -158 -23 -158 17 0 73 38 126 126 176 85 49 143 60 294 56 107 -3
148 -8 196 -25z m-706 -157 c0 -48 -75 -423 -106 -532 -48 -168 -115 -322
-204 -467 -22 -35 -53 -91 -69 -124 -31 -61 -119 -144 -207 -197 -51 -30 -394
-149 -487 -169 -127 -28 -257 -20 -497 29 -286 58 -344 82 -606 252 -190 123
-358 303 -408 436 -36 95 -83 270 -106 393 -19 106 -44 375 -34 384 2 3 17 -5
32 -16 115 -85 276 -125 672 -168 400 -43 940 -33 1430 26 170 20 376 82 495
148 39 22 76 40 83 40 7 1 12 -12 12 -35z m476 -145 c17 -8 30 -24 32 -37 5
-35 -118 -203 -232 -318 -126 -126 -315 -268 -333 -250 -3 2 7 35 22 72 15 37
38 120 52 183 47 224 82 304 145 337 63 33 255 41 314 13z m-2916 -990 c41
-33 102 -88 135 -120 65 -65 305 -230 397 -273 56 -26 91 -35 263 -73 111 -24
505 -23 613 1 113 25 348 104 437 146 95 45 146 88 254 214 l80 93 83 11 c46
6 148 16 228 22 160 12 222 5 384 -44 134 -41 196 -99 196 -183 0 -66 -17 -83
-214 -216 -161 -108 -213 -136 -341 -177 -316 -101 -681 -159 -1135 -180 -118
-5 -253 -12 -300 -15 -276 -15 -326 -15 -500 -1 -102 9 -243 25 -315 36 -71
11 -184 27 -250 35 -199 26 -587 131 -702 189 -86 43 -168 107 -188 147 -9 16
-16 52 -17 79 0 83 45 138 175 214 153 91 287 134 442 145 210 15 191 19 275
-50z"/>
<path d="M11740 8235 c0 -9 28 -33 63 -55 34 -21 72 -46 85 -55 l23 -17 -63
-41 c-35 -22 -103 -65 -153 -95 l-90 -54 59 5 c70 7 253 93 286 134 25 32 26
84 2 106 -25 23 -166 87 -191 87 -12 0 -21 -7 -21 -15z"/>
<path d="M8975 8153 c-39 -42 -65 -91 -65 -121 0 -35 44 -85 105 -118 64 -35
226 -85 353 -110 91 -18 342 -30 398 -20 35 7 37 9 20 21 -10 7 -48 18 -84 24
-217 33 -276 46 -429 92 -92 28 -183 57 -201 64 -45 19 -58 57 -38 110 20 52
20 81 0 89 -23 9 -22 9 -59 -31z"/>
<path d="M6325 7985 c-120 -64 -266 -203 -400 -380 -88 -117 -179 -254 -214
-323 -12 -23 -28 -42 -37 -42 -13 0 -14 9 -10 53 15 139 28 361 22 389 -3 17
-17 46 -31 64 -14 18 -25 37 -25 43 0 40 -131 131 -190 131 -44 0 -52 -5 -213
-151 -98 -90 -152 -130 -211 -159 -77 -40 -78 -40 -108 -22 -41 24 -51 47 -45
104 5 40 3 52 -13 68 -23 23 -29 24 -65 10 -49 -19 -71 -122 -41 -194 9 -22
30 -44 60 -61 43 -25 52 -27 148 -23 98 3 105 5 153 37 28 19 97 83 155 143
96 99 108 108 142 108 68 0 68 0 68 -125 0 -127 -18 -236 -59 -363 -27 -80
-194 -463 -406 -927 -119 -261 -165 -428 -135 -485 13 -24 62 -40 122 -40 107
0 156 55 290 327 57 114 122 253 145 308 23 55 63 150 89 210 25 61 64 155 85
210 24 62 85 177 161 302 254 422 506 704 593 665 39 -18 60 -141 35 -208 -6
-15 -27 -82 -46 -148 -39 -135 -100 -270 -166 -373 -135 -208 -291 -572 -332
-775 -28 -137 -9 -161 135 -166 63 -3 110 0 128 8 40 16 69 75 141 284 68 199
82 230 170 372 98 156 148 223 231 305 132 131 359 267 463 277 l49 5 -6 -55
c-10 -83 -62 -231 -117 -338 -114 -217 -258 -510 -288 -588 -33 -82 -79 -235
-127 -420 -14 -53 -28 -141 -32 -194 -6 -91 -4 -100 20 -150 15 -29 47 -76 72
-105 72 -82 151 -110 236 -82 55 19 249 153 309 213 30 31 57 56 61 56 4 0 10
-21 14 -47 8 -62 57 -208 91 -275 26 -52 158 -191 250 -263 67 -52 147 -68
305 -63 163 6 200 18 333 106 201 132 335 286 485 558 l61 110 66 27 c114 47
217 124 396 294 l67 64 38 -17 c21 -9 97 -37 168 -62 117 -40 141 -45 243 -50
106 -4 112 -5 90 -20 -45 -31 -224 -195 -266 -244 -23 -28 -72 -101 -109 -162
-144 -242 -227 -436 -254 -590 -23 -136 12 -428 61 -495 29 -42 175 -157 236
-187 28 -14 87 -32 132 -42 141 -29 254 4 351 101 61 60 123 180 266 517 48
113 93 213 100 223 15 21 15 20 35 -143 6 -47 16 -102 22 -122 13 -43 63 -108
84 -108 26 0 113 50 128 73 7 12 51 159 96 327 99 368 126 441 245 680 152
305 251 434 415 541 l74 49 23 -22 23 -23 -45 -135 c-78 -240 -156 -568 -190
-802 -9 -57 -18 -184 -21 -283 l-6 -180 39 -110 c22 -60 49 -128 61 -151 32
-64 109 -151 156 -179 87 -51 156 -27 278 97 70 71 85 93 142 211 34 73 85
184 111 247 64 150 67 153 98 103 14 -22 40 -52 59 -66 18 -15 42 -36 53 -46
27 -27 68 -41 118 -41 34 0 57 10 124 56 134 91 176 151 253 364 56 155 67
180 78 180 4 0 18 -21 32 -46 38 -73 58 -94 89 -94 36 0 57 24 82 96 20 55 20
67 10 209 -22 309 -22 340 -7 490 17 168 27 210 93 410 72 221 155 368 288
513 60 64 70 72 103 72 43 0 73 -22 97 -70 34 -67 5 -263 -80 -535 -43 -139
-56 -195 -100 -434 -19 -106 -38 -246 -41 -310 -7 -129 8 -333 32 -426 59
-228 265 -308 428 -164 78 68 176 279 266 569 62 201 57 190 94 182 17 -4 74
-7 126 -7 85 0 101 3 153 29 89 46 163 112 262 235 92 114 132 152 122 115 -3
-11 -51 -203 -106 -429 -221 -894 -214 -872 -387 -1281 -97 -228 -159 -336
-228 -403 -33 -32 -42 -35 -223 -67 -236 -41 -358 -53 -1078 -109 -563 -44
-1127 -95 -1270 -115 -38 -5 -164 -19 -280 -30 -733 -73 -1207 -174 -1473
-316 -320 -169 -495 -371 -496 -574 0 -45 5 -76 18 -100 27 -51 111 -143 170
-189 63 -49 198 -121 291 -156 93 -35 316 -82 474 -100 291 -32 903 -27 1183
10 288 38 689 169 1336 436 403 167 550 248 817 449 249 187 585 497 751 691
40 48 94 100 118 116 25 17 109 54 188 84 184 69 393 172 510 252 51 35 138
94 193 132 151 103 287 211 437 349 214 197 343 362 499 641 84 150 93 193 48
227 -22 16 -30 18 -48 9 -24 -13 -38 -38 -96 -173 -66 -150 -140 -252 -331
-453 -229 -240 -343 -337 -643 -544 -183 -126 -281 -184 -413 -243 -137 -61
-269 -110 -276 -103 -3 3 22 92 56 198 148 460 324 1110 393 1447 77 374 103
609 83 733 -8 43 -34 56 -87 40 -35 -10 -33 -6 -126 -203 -32 -69 -76 -145
-98 -170 -21 -25 -52 -67 -68 -95 -54 -94 -217 -225 -279 -225 -40 0 -105 30
-133 61 -11 13 -32 44 -45 69 -33 65 -30 185 10 340 54 213 146 402 242 497
73 74 137 103 221 103 81 0 98 -11 142 -95 39 -71 57 -81 57 -31 0 43 -31 160
-54 204 -23 45 -79 78 -170 102 -109 28 -151 26 -222 -10 -110 -55 -205 -149
-309 -305 -138 -209 -172 -320 -194 -637 -12 -179 -6 -204 72 -302 32 -42 38
-56 34 -83 -6 -33 -165 -429 -219 -542 -18 -38 -54 -89 -88 -124 -49 -49 -62
-58 -81 -52 -39 12 -69 34 -90 68 -18 28 -20 44 -16 127 3 52 13 130 22 173
13 63 123 459 226 817 51 176 74 477 49 635 -16 100 -24 116 -100 190 l-61 60
-62 0 c-101 0 -173 -42 -294 -169 -177 -185 -255 -323 -353 -626 -34 -105 -64
-190 -68 -190 -4 0 -22 24 -40 54 -82 138 -236 205 -311 135 -29 -27 -26 -59
10 -109 47 -65 64 -111 109 -285 73 -289 72 -332 -15 -640 -88 -308 -170 -462
-244 -453 -21 2 -32 15 -55 62 -23 48 -34 99 -57 255 -37 248 -45 390 -30 513
14 111 7 139 -51 201 -41 43 -89 50 -129 18 -13 -10 -37 -22 -54 -28 -25 -8
-33 -19 -52 -74 -50 -152 -54 -279 -13 -512 32 -187 29 -229 -30 -398 -91
-259 -224 -490 -310 -538 -57 -30 -82 -25 -137 29 -65 65 -67 75 -54 278 14
225 35 310 140 564 156 378 146 342 146 513 -1 213 -33 329 -110 393 -44 35
-95 52 -163 52 -67 0 -88 -9 -180 -76 -171 -125 -245 -217 -382 -475 -45 -85
-88 -164 -96 -175 -28 -46 -104 -235 -140 -352 -24 -79 -40 -118 -45 -109 -5
8 -13 144 -18 303 -9 295 -17 350 -53 386 -21 21 -32 21 -123 -4 -46 -12 -52
-17 -82 -73 -37 -70 -39 -88 -57 -395 -13 -227 -15 -240 -51 -346 -38 -115
-75 -193 -215 -457 -89 -169 -183 -293 -238 -316 -27 -11 -37 -10 -90 14 -79
35 -101 60 -123 142 -40 142 -21 332 61 638 43 160 61 209 114 310 74 142 135
237 206 320 80 93 140 186 140 218 0 18 -10 39 -28 56 -23 23 -39 29 -100 34
-189 18 -386 79 -471 146 l-25 19 72 150 c125 262 158 402 114 488 -28 55 -93
111 -137 120 -41 7 -185 -25 -252 -57 -96 -46 -181 -191 -203 -348 -14 -98 34
-319 92 -421 l23 -41 -90 -87 c-99 -97 -227 -192 -258 -192 -18 0 -19 5 -13
53 3 28 9 125 13 214 5 139 4 172 -12 228 -30 111 -166 294 -232 312 -15 4
-80 8 -143 8 -113 0 -117 -1 -191 -37 -160 -78 -213 -156 -247 -363 -29 -171
-16 -229 77 -345 107 -133 231 -207 415 -246 37 -8 72 -17 78 -20 11 -7 -60
-141 -115 -214 -116 -155 -271 -296 -392 -356 -119 -59 -285 -70 -374 -25 -56
29 -136 112 -168 174 -26 51 -26 52 -14 159 28 259 129 526 306 808 105 168
101 158 75 185 -53 57 -105 56 -222 -2 -58 -29 -97 -60 -189 -152 -137 -136
-153 -165 -207 -359 -38 -136 -40 -142 -97 -207 -136 -154 -253 -245 -318
-245 -77 0 -123 61 -121 162 2 104 35 188 177 446 319 584 331 608 402 816 34
98 37 118 33 186 -4 62 -12 92 -43 158 -40 85 -72 124 -118 141 -42 16 -146
13 -208 -5 -110 -33 -319 -151 -424 -238 -75 -63 -78 -64 -70 -25 4 19 22 88
41 154 77 273 64 398 -52 518 -46 47 -47 47 -114 47 -53 0 -77 -5 -115 -25z
m3312 -887 c20 -18 23 -31 23 -88 0 -81 -19 -120 -148 -314 l-86 -129 -27 31
c-23 26 -28 42 -34 117 -10 119 -2 167 45 260 61 122 85 144 159 145 32 0 51
-6 68 -22z m-1035 -318 c40 -12 82 -62 145 -177 l36 -65 -6 -162 c-7 -180 -19
-263 -43 -318 -17 -38 -18 -38 -75 -38 -133 0 -256 49 -357 145 -121 112 -138
168 -106 350 24 139 51 176 178 244 49 26 70 31 125 31 36 0 83 -5 103 -10z
m5419 -2484 c-17 -20 -215 -160 -381 -268 -590 -387 -1228 -708 -1690 -852
-471 -146 -944 -217 -1445 -218 -265 0 -421 11 -600 42 -365 64 -486 211 -363
441 37 71 110 141 233 225 284 194 596 280 1320 364 143 17 375 43 515 60 365
42 907 89 1735 151 160 11 358 31 440 44 185 27 252 31 236 11z"/>
<path d="M12095 6784 c-88 -46 -95 -53 -95 -100 0 -58 20 -103 58 -136 42 -35
83 -43 121 -23 82 42 79 188 -5 254 -32 25 -40 26 -79 5z"/>
<path d="M10556 1534 c-4 -10 -2 -22 4 -28 19 -19 10 -33 -31 -45 -43 -13 -49
-38 -8 -33 13 2 57 6 97 9 84 6 100 28 28 38 -41 7 -44 9 -42 38 1 26 -3 33
-20 35 -13 2 -24 -4 -28 -14z"/>
<path d="M10585 1409 c-22 -4 -52 -12 -66 -17 -77 -30 -139 -127 -139 -219 0
-49 1 -52 33 -62 92 -33 290 -18 389 29 67 31 74 42 59 93 -36 122 -155 198
-276 176z m0 -134 c39 -38 32 -86 -16 -110 -46 -24 -99 7 -99 59 0 36 7 48 35
64 31 18 54 14 80 -13z m189 -18 c8 -23 6 -31 -12 -49 -18 -18 -26 -20 -48
-13 -59 22 -43 99 19 93 24 -2 34 -10 41 -31z"/>
<path d="M10776 1411 c-3 -4 6 -19 21 -32 14 -13 38 -40 53 -61 17 -24 31 -34
39 -28 10 6 10 14 -3 38 -15 30 -15 32 4 42 11 6 20 17 20 26 0 22 -31 30 -45
11 -15 -21 -29 -21 -45 -2 -14 17 -36 20 -44 6z"/>
<path d="M11129 1391 c-22 -23 -29 -39 -29 -70 0 -36 -3 -40 -27 -43 -24 -3
-28 -8 -31 -40 -3 -36 -2 -38 27 -38 l31 0 0 -111 0 -110 38 3 37 3 3 107 3
107 42 3 c41 3 42 4 42 38 0 34 -1 35 -42 38 -40 3 -43 5 -43 32 0 32 17 42
60 33 29 -5 30 -4 30 30 0 40 -11 47 -72 47 -30 0 -46 -7 -69 -29z"/>
<path d="M12440 1400 c-34 -34 -17 -80 30 -80 51 0 72 55 32 88 -22 17 -39 15
-62 -8z"/>
<path d="M12562 1198 l3 -213 38 -3 37 -3 0 58 0 57 58 -57 c52 -51 62 -57
100 -57 23 0 42 3 42 6 0 3 -29 38 -65 78 l-64 72 64 64 c36 36 65 68 65 72 0
4 -18 8 -41 8 -36 0 -49 -7 -98 -52 l-56 -51 -3 116 -3 117 -40 0 -39 0 2
-212z"/>
<path d="M7370 1309 l0 -70 -26 20 c-30 23 -80 27 -119 9 -90 -41 -94 -227 -5
-273 38 -20 90 -19 120 2 17 12 25 13 28 5 2 -7 15 -12 28 -12 l24 0 0 195 0
195 -25 0 c-24 0 -25 -2 -25 -71z m-34 -85 l34 -16 0 -78 0 -78 -34 -16 c-42
-20 -50 -20 -85 -1 -47 24 -63 92 -35 150 25 52 64 65 120 39z"/>
<path d="M9330 1308 c0 -70 0 -71 -20 -53 -32 29 -99 31 -140 3 -79 -53 -79
-203 -1 -255 43 -29 99 -30 135 -2 21 17 26 18 26 5 0 -10 9 -16 25 -16 l25 0
0 195 0 195 -25 0 c-24 0 -25 -2 -25 -72z m-18 -95 c26 -23 26 -143 1 -166
-44 -39 -111 -28 -138 22 -29 57 -10 141 38 161 29 12 76 4 99 -17z"/>
<path d="M9590 1185 c0 -188 1 -195 20 -195 11 0 20 7 20 15 0 11 7 10 35 -7
104 -61 212 42 183 176 -19 88 -109 131 -183 88 l-35 -21 0 69 c0 63 -2 70
-20 70 -19 0 -20 -7 -20 -195z m181 26 c24 -25 29 -38 29 -79 0 -82 -47 -124
-115 -102 -44 14 -55 35 -55 99 0 65 7 81 44 97 46 20 65 17 97 -15z"/>
<path d="M10377 1352 c-22 -21 -29 -24 -36 -14 -12 20 -46 10 -46 -13 0 -13 8
-21 23 -23 20 -3 23 -8 17 -30 -11 -44 -11 -46 8 -50 11 -2 17 3 17 14 0 10
14 42 31 72 35 62 27 86 -14 44z"/>
<path d="M8064 1356 c-10 -26 4 -48 28 -44 17 2 23 10 23 28 0 18 -6 26 -23
28 -13 2 -25 -3 -28 -12z"/>
<path d="M7553 1264 c-47 -23 -75 -74 -75 -134 0 -88 60 -150 145 -150 45 0
107 26 107 46 0 22 -18 26 -49 9 -47 -24 -88 -19 -122 14 -52 53 -43 60 84 63
l112 3 -4 35 c-10 104 -106 159 -198 114z m108 -34 c16 -9 49 -58 49 -75 0 -3
-40 -5 -90 -5 -79 0 -90 2 -90 18 1 51 80 89 131 62z"/>
<path d="M7844 1270 c-28 -11 -54 -48 -54 -75 0 -37 24 -57 96 -80 55 -18 70
-27 72 -44 2 -12 -2 -29 -8 -37 -17 -20 -79 -17 -116 5 -30 18 -31 18 -42 0
-19 -30 28 -54 104 -54 76 0 114 27 114 82 0 42 -26 69 -82 83 -24 6 -53 15
-65 20 -25 10 -30 39 -11 58 17 17 79 15 106 -4 23 -16 42 -12 42 10 0 33
-105 57 -156 36z"/>
<path d="M8216 1249 c-40 -34 -56 -90 -45 -153 9 -53 38 -88 86 -105 37 -13
44 -13 84 7 23 12 45 20 47 17 9 -8 -10 -64 -27 -79 -31 -28 -85 -31 -125 -8
-35 20 -36 21 -46 3 -8 -15 -5 -22 15 -35 60 -39 166 -28 205 21 18 23 20 40
20 189 0 157 -1 164 -20 164 -11 0 -20 -7 -20 -15 0 -12 -6 -11 -32 5 -50 30
-100 26 -142 -11z m123 -20 c41 -14 51 -35 51 -103 0 -47 -4 -57 -26 -75 -16
-13 -41 -21 -65 -21 -52 0 -79 35 -79 102 0 41 5 54 29 79 32 32 43 34 90 18z"/>
<path d="M8587 1261 c-29 -15 -37 -16 -37 -5 0 8 -10 14 -25 14 l-25 0 0 -140
0 -140 25 0 25 0 0 105 0 105 33 20 c39 24 70 25 91 4 13 -12 16 -39 16 -125
l0 -109 25 0 25 0 0 120 c0 115 -1 122 -25 145 -30 31 -76 33 -128 6z"/>
<path d="M8873 1264 c-47 -23 -75 -74 -75 -134 0 -88 60 -150 145 -150 45 0
107 26 107 46 0 22 -18 26 -49 9 -47 -24 -88 -19 -122 14 -52 53 -43 60 84 63
l112 3 -4 35 c-10 104 -106 159 -198 114z m108 -34 c16 -9 49 -58 49 -75 0 -3
-40 -5 -90 -5 -81 0 -90 2 -90 19 0 49 81 87 131 61z"/>
<path d="M11294 1267 c-2 -7 -3 -74 -2 -148 l3 -134 38 -3 37 -3 0 88 c0 99
14 133 55 133 26 0 71 52 60 70 -9 15 -68 12 -93 -6 -20 -14 -22 -14 -22 0 0
20 -68 22 -76 3z"/>
<path d="M11543 1260 c-41 -25 -60 -55 -69 -106 -8 -54 8 -103 47 -140 28 -27
36 -29 103 -29 53 0 79 5 100 19 l28 18 -25 25 c-20 21 -28 23 -45 14 -32 -17
-87 -13 -105 7 -10 10 -17 22 -17 25 0 4 45 7 100 7 l100 0 0 35 c0 48 -31
106 -68 128 -40 23 -109 22 -149 -3z m125 -77 l14 -23 -61 0 c-63 0 -72 7 -45
35 23 22 73 16 92 -12z"/>
<path d="M11851 1262 c-91 -50 -95 -209 -7 -263 39 -24 125 -25 172 -3 40 19
41 24 10 53 -20 19 -28 21 -44 12 -34 -18 -80 -13 -104 12 l-23 22 103 3 c80
2 104 6 109 18 10 26 -18 101 -48 130 -38 36 -118 44 -168 16z m113 -68 c27
-27 18 -34 -45 -34 -61 0 -63 2 -36 38 13 17 62 15 81 -4z"/>
<path d="M12100 1069 l0 -210 38 3 37 3 5 67 c4 57 7 66 20 58 8 -5 37 -10 64
-10 43 0 53 4 86 38 64 63 66 154 7 219 -26 27 -42 36 -78 40 -27 3 -55 0 -69
-7 -16 -9 -25 -9 -33 -1 -6 6 -26 11 -44 11 l-33 0 0 -211z m168 135 c12 -4
30 -20 38 -36 32 -62 -12 -127 -77 -113 -61 14 -72 116 -16 143 27 13 27 13
55 6z"/>
<path d="M12434 1267 c-2 -7 -3 -74 -2 -148 l3 -134 38 -3 37 -3 0 150 0 151
-35 0 c-20 0 -38 -6 -41 -13z"/>
<path d="M8060 1130 l0 -140 25 0 25 0 0 140 0 140 -25 0 -25 0 0 -140z"/>
<path d="M9870 1265 c0 -3 25 -66 56 -140 55 -134 59 -158 32 -192 -6 -7 -21
-13 -33 -13 -24 0 -41 -35 -23 -46 18 -12 78 7 92 29 14 20 156 353 156 364 0
2 -12 3 -26 1 -24 -3 -31 -15 -67 -105 -22 -57 -43 -103 -47 -103 -4 0 -26 47
-50 105 -37 92 -46 105 -66 105 -13 0 -24 -2 -24 -5z"/>
<path d="M10804 1113 c-75 -34 -154 -46 -281 -41 -62 2 -113 1 -113 -3 0 -13
83 -81 116 -95 47 -20 150 -17 199 5 44 20 110 87 126 128 5 14 8 27 7 28 -2
1 -26 -9 -54 -22z"/>
</g>
</svg>
